HIERARCHY
ROOT mixamorig:Hips
{
	OFFSET -0.000008 104.274872 1.554316
	CHANNELS 6 Xposition Yposition Zposition Xrotation Yrotation Zrotation
	JOINT mixamorig:Spine
	{
		OFFSET -0.000005 10.181595 0.131519
		CHANNELS 6 Xposition Yposition Zposition Xrotation Yrotation Zrotation
		JOINT mixamorig:Spine1
		{
			OFFSET -0.000000 9.893959 -1.470707
			CHANNELS 6 Xposition Yposition Zposition Xrotation Yrotation Zrotation
			JOINT mixamorig:Spine2
			{
				OFFSET -0.000000 9.220757 -1.370641
				CHANNELS 6 Xposition Yposition Zposition Xrotation Yrotation Zrotation
				JOINT mixamorig:Neck
				{
					OFFSET 0.000001 16.740417 -2.049036
					CHANNELS 6 Xposition Yposition Zposition Xrotation Yrotation Zrotation
					JOINT mixamorig:Head
					{
						OFFSET 0.000000 9.617874 1.685006
						CHANNELS 6 Xposition Yposition Zposition Xrotation Yrotation Zrotation
						JOINT mixamorig:HeadTop_End
						{
							OFFSET 0.000002 22.037354 7.501101
							CHANNELS 6 Xposition Yposition Zposition Xrotation Yrotation Zrotation
							End Site
							{
								OFFSET 0.000168 2310.654297 -282.823242
							}
						}
					}
				}
				JOINT mixamorig:RightShoulder
				{
					OFFSET -4.569970 11.014908 -2.160885
					CHANNELS 6 Xposition Yposition Zposition Xrotation Yrotation Zrotation
					JOINT mixamorig:RightArm
					{
						OFFSET -10.592851 -0.524811 -2.232101
						CHANNELS 6 Xposition Yposition Zposition Xrotation Yrotation Zrotation
						JOINT mixamorig:RightForeArm
						{
							OFFSET -27.841511 0.000031 -0.000004
							CHANNELS 6 Xposition Yposition Zposition Xrotation Yrotation Zrotation
							JOINT mixamorig:RightHand
							{
								OFFSET -28.328831 -0.000015 0.000015
								CHANNELS 6 Xposition Yposition Zposition Xrotation Yrotation Zrotation
								JOINT mixamorig:RightHandThumb1
								{
									OFFSET -2.464806 -1.573990 2.681852
									CHANNELS 6 Xposition Yposition Zposition Xrotation Yrotation Zrotation
									JOINT mixamorig:RightHandThumb2
									{
										OFFSET -3.215179 -1.872803 1.924282
										CHANNELS 6 Xposition Yposition Zposition Xrotation Yrotation Zrotation
										JOINT mixamorig:RightHandThumb3
										{
											OFFSET -2.654831 -1.527969 1.512609
											CHANNELS 6 Xposition Yposition Zposition Xrotation Yrotation Zrotation
											JOINT mixamorig:RightHandThumb4
											{
												OFFSET -2.018814 -1.152008 1.108052
												CHANNELS 6 Xposition Yposition Zposition Xrotation Yrotation Zrotation
												End Site
												{
													OFFSET -188.809540 -114.533607 132.431396
												}
											}
										}
									}
								}
								JOINT mixamorig:RightHandIndex1
								{
									OFFSET -9.108284 -0.517868 2.259835
									CHANNELS 6 Xposition Yposition Zposition Xrotation Yrotation Zrotation
									JOINT mixamorig:RightHandIndex2
									{
										OFFSET -3.699989 0.000000 0.001215
										CHANNELS 6 Xposition Yposition Zposition Xrotation Yrotation Zrotation
										JOINT mixamorig:RightHandIndex3
										{
											OFFSET -2.850006 0.000031 -0.000522
											CHANNELS 6 Xposition Yposition Zposition Xrotation Yrotation Zrotation
											JOINT mixamorig:RightHandIndex4
											{
												OFFSET -2.772186 -0.000015 -0.000020
												CHANNELS 6 Xposition Yposition Zposition Xrotation Yrotation Zrotation
												End Site
												{
													OFFSET -277.218445 0.000000 -0.050231
												}
											}
										}
									}
								}
								JOINT mixamorig:RightHandMiddle1
								{
									OFFSET -9.532516 -0.000031 -0.000023
									CHANNELS 6 Xposition Yposition Zposition Xrotation Yrotation Zrotation
									JOINT mixamorig:RightHandMiddle2
									{
										OFFSET -3.700005 -0.000015 0.003713
										CHANNELS 6 Xposition Yposition Zposition Xrotation Yrotation Zrotation
										JOINT mixamorig:RightHandMiddle3
										{
											OFFSET -2.949974 0.000015 -0.002054
											CHANNELS 6 Xposition Yposition Zposition Xrotation Yrotation Zrotation
											JOINT mixamorig:RightHandMiddle4
											{
												OFFSET -2.946640 0.000000 -0.000156
												CHANNELS 6 Xposition Yposition Zposition Xrotation Yrotation Zrotation
												End Site
												{
													OFFSET -294.664337 0.000000 -0.113670
												}
											}
										}
									}
								}
								JOINT mixamorig:RightHandRing1
								{
									OFFSET -9.103600 -0.043076 -1.865134
									CHANNELS 6 Xposition Yposition Zposition Xrotation Yrotation Zrotation
									JOINT mixamorig:RightHandRing2
									{
										OFFSET -3.379288 0.000000 -0.001055
										CHANNELS 6 Xposition Yposition Zposition Xrotation Yrotation Zrotation
										JOINT mixamorig:RightHandRing3
										{
											OFFSET -2.889687 -0.000015 0.000379
											CHANNELS 6 Xposition Yposition Zposition Xrotation Yrotation Zrotation
											JOINT mixamorig:RightHandRing4
											{
												OFFSET -2.638809 -0.000015 0.000941
												CHANNELS 6 Xposition Yposition Zposition Xrotation Yrotation Zrotation
												End Site
												{
													OFFSET -263.880371 0.000000 0.516020
												}
											}
										}
									}
								}
								JOINT mixamorig:RightHandPinky1
								{
									OFFSET -8.076683 -0.486710 -3.806280
									CHANNELS 6 Xposition Yposition Zposition Xrotation Yrotation Zrotation
									JOINT mixamorig:RightHandPinky2
									{
										OFFSET -3.600014 -0.000015 -0.003747
										CHANNELS 6 Xposition Yposition Zposition Xrotation Yrotation Zrotation
										JOINT mixamorig:RightHandPinky3
										{
											OFFSET -2.099983 0.000000 -0.005739
											CHANNELS 6 Xposition Yposition Zposition Xrotation Yrotation Zrotation
											JOINT mixamorig:RightHandPinky4
											{
												OFFSET -2.115768 -0.000031 -0.003680
												CHANNELS 6 Xposition Yposition Zposition Xrotation Yrotation Zrotation
												End Site
												{
													OFFSET -211.577087 0.000000 -0.350686
												}
											}
										}
									}
								}
							}
						}
					}
				}
				JOINT mixamorig:LeftShoulder
				{
					OFFSET 4.570447 11.014725 -2.160855
					CHANNELS 6 Xposition Yposition Zposition Xrotation Yrotation Zrotation
					JOINT mixamorig:LeftArm
					{
						OFFSET 10.592371 -0.524597 -2.232119
						CHANNELS 6 Xposition Yposition Zposition Xrotation Yrotation Zrotation
						JOINT mixamorig:LeftForeArm
						{
							OFFSET 27.841532 -0.000031 0.000026
							CHANNELS 6 Xposition Yposition Zposition Xrotation Yrotation Zrotation
							JOINT mixamorig:LeftHand
							{
								OFFSET 28.328846 -0.000061 0.000022
								CHANNELS 6 Xposition Yposition Zposition Xrotation Yrotation Zrotation
								JOINT mixamorig:LeftHandThumb1
								{
									OFFSET 2.466141 -1.576172 2.681732
									CHANNELS 6 Xposition Yposition Zposition Xrotation Yrotation Zrotation
									JOINT mixamorig:LeftHandThumb2
									{
										OFFSET 3.217812 -1.872070 1.916482
										CHANNELS 6 Xposition Yposition Zposition Xrotation Yrotation Zrotation
										JOINT mixamorig:LeftHandThumb3
										{
											OFFSET 2.656029 -1.528778 1.514513
											CHANNELS 6 Xposition Yposition Zposition Xrotation Yrotation Zrotation
											JOINT mixamorig:LeftHandThumb4
											{
												OFFSET 2.020889 -1.154053 1.115139
												CHANNELS 6 Xposition Yposition Zposition Xrotation Yrotation Zrotation
												End Site
												{
													OFFSET 190.885437 -115.081749 130.048782
												}
											}
										}
									}
								}
								JOINT mixamorig:LeftHandIndex1
								{
									OFFSET 9.109314 -0.518021 2.259871
									CHANNELS 6 Xposition Yposition Zposition Xrotation Yrotation Zrotation
									JOINT mixamorig:LeftHandIndex2
									{
										OFFSET 3.699989 0.000000 -0.000322
										CHANNELS 6 Xposition Yposition Zposition Xrotation Yrotation Zrotation
										JOINT mixamorig:LeftHandIndex3
										{
											OFFSET 2.850006 0.000000 0.000352
											CHANNELS 6 Xposition Yposition Zposition Xrotation Yrotation Zrotation
											JOINT mixamorig:LeftHandIndex4
											{
												OFFSET 2.774864 -0.000031 -0.000027
												CHANNELS 6 Xposition Yposition Zposition Xrotation Yrotation Zrotation
												End Site
												{
													OFFSET 277.486267 0.000000 -0.009857
												}
											}
										}
									}
								}
								JOINT mixamorig:LeftHandMiddle1
								{
									OFFSET 9.533394 0.000061 0.000044
									CHANNELS 6 Xposition Yposition Zposition Xrotation Yrotation Zrotation
									JOINT mixamorig:LeftHandMiddle2
									{
										OFFSET 3.699989 -0.000015 -0.000231
										CHANNELS 6 Xposition Yposition Zposition Xrotation Yrotation Zrotation
										JOINT mixamorig:LeftHandMiddle3
										{
											OFFSET 2.949997 -0.000015 -0.000059
											CHANNELS 6 Xposition Yposition Zposition Xrotation Yrotation Zrotation
											JOINT mixamorig:LeftHandMiddle4
											{
												OFFSET 2.952896 0.000031 0.000063
												CHANNELS 6 Xposition Yposition Zposition Xrotation Yrotation Zrotation
												End Site
												{
													OFFSET 295.289337 0.000000 0.022810
												}
											}
										}
									}
								}
								JOINT mixamorig:LeftHandRing1
								{
									OFFSET 9.104523 -0.042999 -1.865074
									CHANNELS 6 Xposition Yposition Zposition Xrotation Yrotation Zrotation
									JOINT mixamorig:LeftHandRing2
									{
										OFFSET 3.150009 -0.000031 0.000043
										CHANNELS 6 Xposition Yposition Zposition Xrotation Yrotation Zrotation
										JOINT mixamorig:LeftHandRing3
										{
											OFFSET 2.949982 -0.000015 0.000040
											CHANNELS 6 Xposition Yposition Zposition Xrotation Yrotation Zrotation
											JOINT mixamorig:LeftHandRing4
											{
												OFFSET 2.644348 0.000000 0.000057
												CHANNELS 6 Xposition Yposition Zposition Xrotation Yrotation Zrotation
												End Site
												{
													OFFSET 264.434631 0.000000 0.012105
												}
											}
										}
									}
								}
								JOINT mixamorig:LeftHandPinky1
								{
									OFFSET 8.077789 -0.486847 -3.806259
									CHANNELS 6 Xposition Yposition Zposition Xrotation Yrotation Zrotation
									JOINT mixamorig:LeftHandPinky2
									{
										OFFSET 3.599953 0.000031 0.014727
										CHANNELS 6 Xposition Yposition Zposition Xrotation Yrotation Zrotation
										JOINT mixamorig:LeftHandPinky3
										{
											OFFSET 2.100021 0.000015 0.007705
											CHANNELS 6 Xposition Yposition Zposition Xrotation Yrotation Zrotation
											JOINT mixamorig:LeftHandPinky4
											{
												OFFSET 2.125504 0.000031 0.007517
												CHANNELS 6 Xposition Yposition Zposition Xrotation Yrotation Zrotation
												End Site
												{
													OFFSET 212.550781 0.000000 0.625752
												}
											}
										}
									}
								}
							}
						}
					}
				}
			}
		}
	}
	JOINT mixamorig:RightUpLeg
	{
		OFFSET -8.207787 -6.751648 -1.599560
		CHANNELS 6 Xposition Yposition Zposition Xrotation Yrotation Zrotation
		JOINT mixamorig:RightLeg
		{
			OFFSET -0.000002 -44.370117 0.345942
			CHANNELS 6 Xposition Yposition Zposition Xrotation Yrotation Zrotation
			JOINT mixamorig:RightFoot
			{
				OFFSET 0.000003 -44.423679 -3.043532
				CHANNELS 6 Xposition Yposition Zposition Xrotation Yrotation Zrotation
				JOINT mixamorig:RightToeBase
				{
					OFFSET -0.000002 -8.728671 10.710558
					CHANNELS 6 Xposition Yposition Zposition Xrotation Yrotation Zrotation
					JOINT mixamorig:RightToe_End
					{
						OFFSET -0.000001 -0.000679 9.278119
						CHANNELS 6 Xposition Yposition Zposition Xrotation Yrotation Zrotation
						End Site
						{
							OFFSET 0.000000 -0.067690 927.812134
						}
					}
				}
			}
		}
	}
	JOINT mixamorig:LeftUpLeg
	{
		OFFSET 8.207793 -6.751686 -1.599556
		CHANNELS 6 Xposition Yposition Zposition Xrotation Yrotation Zrotation
		JOINT mixamorig:LeftLeg
		{
			OFFSET -0.000004 -44.370014 0.346954
			CHANNELS 6 Xposition Yposition Zposition Xrotation Yrotation Zrotation
			JOINT mixamorig:LeftFoot
			{
				OFFSET -0.000001 -44.423672 -3.044401
				CHANNELS 6 Xposition Yposition Zposition Xrotation Yrotation Zrotation
				JOINT mixamorig:LeftToeBase
				{
					OFFSET -0.000002 -8.728669 10.710558
					CHANNELS 6 Xposition Yposition Zposition Xrotation Yrotation Zrotation
					JOINT mixamorig:LeftToe_End
					{
						OFFSET -0.000003 -0.000679 9.278133
						CHANNELS 6 Xposition Yposition Zposition Xrotation Yrotation Zrotation
						End Site
						{
							OFFSET 0.000000 -0.068021 927.813477
						}
					}
				}
			}
		}
	}
}
MOTION
Frames: 3
Frame Time: 0.033333
0.000006 104.270477 1.554256 0.000010 0.000003 -0.000113 -0.000005 10.181587 0.131522 0.000001 -0.000003 0.000084 -0.000000 9.893967 -1.470711 0.000001 0.000000 -0.000000 -0.000000 9.220802 -1.370642 0.000000 -0.000000 -0.000000 0.000001 16.740433 -2.049030 0.000000 -0.000000 -0.000000 0.000000 9.617859 1.685014 0.000000 0.000000 0.000000 0.000002 22.037384 7.501101 0.000000 -0.000000 0.000000 -4.569968 11.014880 -2.160881 0.000008 0.000001 -0.000038 -10.592793 -0.524832 -2.231751 68.955787 63.553032 -46.088901 -27.841488 0.000008 0.000589 33.515079 103.278812 -41.657904 -28.328829 0.000035 0.000019 -0.000323 -0.000045 0.000007 -2.464500 -1.574173 2.682205 56.765074 -125.445945 112.325951 -3.214754 -1.872885 1.924743 171.765406 -42.169540 228.779631 -2.654638 -1.527641 1.513019 127.904089 15.013478 115.843546 -2.018835 -1.152014 1.108063 -0.000004 0.000001 0.000005 -9.108188 -0.517914 2.260412 172.379290 13.998547 -123.405768 -3.699783 -0.000060 0.001795 176.041432 10.635096 -138.995374 -2.849854 -0.000024 0.000053 176.598899 8.117447 -134.576419 -2.772185 -0.000017 -0.000023 0.000003 0.000005 -0.000001 -9.532568 0.000041 0.000512 156.412111 15.433458 -66.607137 -3.700002 0.000030 0.003713 361.719660 -1.000889 0.015519 -2.949934 -0.000058 -0.002056 343.061496 -11.972603 -1.790657 -2.946622 0.000014 -0.000157 0.000000 0.000002 -0.000001 -9.103666 -0.042956 -1.864588 158.982065 10.865041 -54.053731 -3.379054 -0.000072 -0.001074 343.839509 -40.369495 -5.967839 -2.889549 -0.000065 0.000358 338.650942 -30.999428 -5.965717 -2.638801 -0.000010 0.000951 -0.000001 -0.000001 0.000003 -8.076674 -0.486469 -3.805746 164.158652 0.534389 -2.948274 -3.599725 -0.000143 -0.003743 154.625934 -130.153571 167.850355 -2.099835 -0.000106 -0.005784 341.178030 -29.819312 -5.139127 -2.115772 -0.000052 -0.003674 -0.000002 0.000003 -0.000002 4.570446 11.014691 -2.160851 -0.000018 0.000010 -0.000021 10.592516 -0.524545 -2.232387 60.413324 -64.644517 40.442558 27.841780 -0.000046 -0.000131 219.020589 -79.385636 226.234402 28.328829 -0.000044 0.000020 0.000023 -0.000090 0.000001 2.466180 -1.576119 2.681892 74.280739 141.547625 -133.385426 3.217662 -1.872061 1.916543 165.404505 46.668186 502.988845 2.655717 -1.528480 1.514506 125.918963 -18.088421 626.717449 2.020887 -1.154071 1.115146 0.000002 0.000000 0.000001 9.109402 -0.518009 2.259920 174.819266 -9.522505 122.838111 3.700130 0.000121 -0.000282 172.777394 -5.936763 79.056960 2.850000 0.000413 0.000380 169.344719 -0.091250 0.966666 2.774881 -0.000030 -0.000027 0.000006 -0.000002 -0.000001 9.533278 0.000027 0.000110 179.296591 -7.866124 169.683318 3.699986 -0.000017 -0.000167 178.983782 -2.275119 131.727889 2.949886 0.000422 -0.000022 -4.268865 -181.455532 142.398530 2.952868 -0.000032 0.000072 0.000000 -0.000002 -0.000001 9.104280 -0.042753 -1.864958 193.045653 -12.450544 272.695958 3.150008 0.000018 0.000132 327.215539 6.924790 2.038771 2.949966 0.000009 0.000023 352.003634 16.400970 1.153879 2.644295 0.000030 0.000053 -0.000002 -0.000001 -0.000000 8.077783 -0.486507 -3.806101 208.284829 0.164745 -1.194612 3.599961 -0.000005 0.014800 323.301950 27.644509 9.085543 2.099982 0.000004 0.007659 -0.403596 25.133035 -0.001738 2.125500 0.000000 0.007511 0.000002 -0.000000 0.000001 -8.207786 -6.751667 -1.599560 -0.077001 -0.000003 0.000080 -0.000002 -44.370110 0.345938 0.153719 -0.000000 -0.000000 0.000000 -44.423679 -3.043532 -0.076700 0.000000 -0.000002 -0.000006 -8.728667 10.710559 -0.000009 -0.000000 -0.000000 -0.000001 -0.000679 9.278123 0.000000 -0.000000 -0.000000 8.207792 -6.751710 -1.599556 -0.074518 -0.000003 0.000081 -0.000002 -44.370014 0.346960 0.148822 0.000002 0.000000 -0.000001 -44.423664 -3.044403 -0.074314 0.000000 -0.000002 -0.000004 -8.728671 10.710558 0.000007 -0.000000 -0.000000 0.000000 -0.000680 9.278137 -0.000000 0.000000 -0.000001 
0.000006 104.270477 1.554256 0.000010 0.000003 -0.000113 -0.000005 10.181587 0.131522 0.000001 -0.000003 0.000084 -0.000000 9.893967 -1.470711 0.000001 0.000000 -0.000000 -0.000000 9.220802 -1.370642 0.000000 -0.000000 -0.000000 0.000001 16.740433 -2.049030 0.000000 -0.000000 -0.000000 0.000000 9.617859 1.685014 0.000000 0.000000 0.000000 0.000002 22.037384 7.501101 0.000000 -0.000000 0.000000 -4.569968 11.014880 -2.160881 0.000008 0.000001 -0.000038 -10.592798 -0.524842 -2.231759 69.099214 63.209658 -45.923091 -27.841484 0.000022 0.000579 34.328312 103.530887 -42.811574 -28.328831 0.000021 0.000013 -0.000321 -0.000044 0.000005 -2.464480 -1.574189 2.682211 56.212686 -123.673552 110.875116 -3.214735 -1.872871 1.924729 170.493051 -42.201816 226.947816 -2.654616 -1.527637 1.513002 127.770272 14.125941 117.595913 -2.018837 -1.151993 1.108064 -0.000002 -0.000000 0.000000 -9.108198 -0.517927 2.260411 171.793273 13.985793 -119.716482 -3.699794 -0.000051 0.001794 175.462683 10.813319 -134.313170 -2.849883 -0.000037 0.000063 175.133878 8.346378 -119.558869 -2.772167 -0.000012 -0.000031 0.000002 0.000001 0.000002 -9.532563 0.000029 0.000519 156.041914 14.921904 -64.007287 -3.700023 0.000078 0.003699 374.536920 -0.324541 0.051336 -2.949919 -0.000066 -0.002060 346.317037 -12.635146 -1.523410 -2.946631 0.000002 -0.000155 -0.000003 -0.000003 -0.000000 -9.103667 -0.042981 -1.864595 157.913140 10.746102 -51.238515 -3.379050 -0.000066 -0.001076 349.914279 -41.507763 -3.823515 -2.889546 -0.000069 0.000346 339.620037 -31.531309 -5.791577 -2.638811 -0.000018 0.000939 0.000002 0.000003 -0.000002 -8.076676 -0.486492 -3.805743 163.327950 0.373930 -1.713715 -3.599731 -0.000146 -0.003726 157.912826 -128.964353 169.154252 -2.099816 -0.000109 -0.005780 340.779175 -29.918605 -5.266964 -2.115773 -0.000044 -0.003687 0.000002 0.000001 -0.000001 4.570446 11.014691 -2.160851 -0.000018 0.000010 -0.000021 10.592514 -0.524542 -2.232396 60.534751 -64.429584 40.378695 27.841776 -0.000055 -0.000115 219.267227 -79.277801 226.596894 28.328831 -0.000028 0.000015 0.000025 -0.000089 0.000000 2.466181 -1.576135 2.681898 75.723302 141.417359 -134.274142 3.217657 -1.872074 1.916536 167.621981 48.098165 500.639370 2.655708 -1.528475 1.514496 125.246914 -16.511229 623.668343 2.020895 -1.154051 1.115155 -0.000000 0.000005 0.000001 9.109348 -0.518026 2.259930 176.397435 -8.893045 135.806099 3.700136 0.000110 -0.000275 174.025543 -5.703742 87.615467 2.850025 0.000419 0.000383 170.306669 -0.335614 3.943178 2.774888 -0.000032 -0.000027 0.000001 -0.000001 0.000003 9.533229 0.000046 0.000119 180.290097 -7.502504 184.317176 3.699790 -0.000010 -0.000159 180.167959 -2.812510 186.744626 2.949983 0.000382 -0.000010 -3.044967 -180.280849 169.546851 2.952866 -0.000030 0.000070 0.000002 0.000001 -0.000000 9.104267 -0.042795 -1.864965 191.503901 -11.949888 267.806062 3.150006 0.000031 0.000140 326.535853 4.347794 1.307103 2.949985 -0.000006 0.000014 352.610128 14.877035 0.965852 2.644325 0.000030 0.000056 -0.000002 0.000000 -0.000000 8.077780 -0.486490 -3.806107 204.944566 -0.478451 -4.208390 3.599962 0.000027 0.014806 320.675278 26.626646 9.413297 2.099976 0.000002 0.007668 -0.532375 23.633570 0.024788 2.125509 -0.000021 0.007515 -0.000005 -0.000003 -0.000002 -8.207786 -6.751667 -1.599560 -0.077001 -0.000003 0.000080 -0.000002 -44.370110 0.345938 0.153719 -0.000000 -0.000000 0.000000 -44.423679 -3.043532 -0.076700 0.000000 -0.000002 -0.000006 -8.728667 10.710559 -0.000009 -0.000000 -0.000000 -0.000001 -0.000679 9.278123 0.000000 -0.000000 -0.000000 8.207792 -6.751710 -1.599556 -0.074518 -0.000003 0.000081 -0.000002 -44.370014 0.346960 0.148822 0.000002 0.000000 -0.000001 -44.423664 -3.044403 -0.074314 0.000000 -0.000002 -0.000004 -8.728671 10.710558 0.000007 -0.000000 -0.000000 0.000000 -0.000680 9.278137 -0.000000 0.000000 -0.000001 
0.000006 104.270477 1.554256 0.000010 0.000003 -0.000113 -0.000005 10.181587 0.131522 0.000001 -0.000003 0.000084 -0.000000 9.893967 -1.470711 0.000001 0.000000 -0.000000 -0.000000 9.220802 -1.370642 0.000000 -0.000000 -0.000000 0.000001 16.740433 -2.049030 0.000000 -0.000000 -0.000000 0.000000 9.617859 1.685014 0.000000 0.000000 0.000000 0.000002 22.037384 7.501101 0.000000 -0.000000 0.000000 -4.569968 11.014880 -2.160881 0.000008 0.000001 -0.000038 -10.592794 -0.524833 -2.231754 69.298239 63.738458 -46.503445 -27.841490 -0.000003 0.000578 34.862194 103.228843 -43.241357 -28.328829 0.000036 0.000021 -0.000318 -0.000044 0.000007 -2.464483 -1.574190 2.682185 57.674964 -123.777357 112.181677 -3.214755 -1.872876 1.924755 172.280962 -42.441990 229.325487 -2.654593 -1.527629 1.513016 127.488309 10.141692 125.169364 -2.018841 -1.152000 1.108065 -0.000004 -0.000002 -0.000001 -9.108137 -0.517920 2.260415 175.446482 14.392016 -145.397228 -3.699729 -0.000024 0.001799 177.625599 10.729956 -154.855879 -2.849884 -0.000023 0.000051 175.752556 8.012156 -124.183481 -2.772170 -0.000020 -0.000017 0.000001 -0.000002 -0.000001 -9.532565 0.000014 0.000517 157.131343 15.101529 -67.141688 -3.699981 0.000062 0.003690 373.277925 -4.693337 0.552526 -2.949929 -0.000058 -0.002050 347.249686 -14.246292 -1.601301 -2.946621 0.000001 -0.000157 -0.000001 0.000003 0.000001 -9.103655 -0.042961 -1.864587 158.631881 10.543695 -51.895873 -3.379030 -0.000054 -0.001070 347.165729 -43.768559 -5.165875 -2.889540 -0.000055 0.000348 339.774700 -32.662907 -5.964245 -2.638819 -0.000028 0.000938 -0.000001 -0.000000 -0.000005 -8.076663 -0.486472 -3.805741 163.698119 -0.167981 2.002480 -3.599712 -0.000138 -0.003711 155.279365 -126.536740 167.190163 -2.099816 -0.000095 -0.005773 340.858678 -31.428603 -5.520800 -2.115773 -0.000039 -0.003682 -0.000001 -0.000000 -0.000004 4.570446 11.014691 -2.160851 -0.000018 0.000010 -0.000021 10.592514 -0.524546 -2.232393 60.728749 -64.463284 40.547398 27.841770 -0.000045 -0.000131 220.200887 -79.606148 227.420984 28.328836 -0.000044 0.000019 0.000023 -0.000087 0.000001 2.466178 -1.576130 2.681887 76.221844 140.957783 -134.404449 3.217670 -1.872071 1.916548 168.619817 47.883188 499.123232 2.655689 -1.528476 1.514504 125.446833 -16.369177 621.975549 2.020906 -1.154074 1.115151 0.000003 0.000000 0.000006 9.109243 -0.518026 2.259940 178.326909 -9.536555 160.005623 3.700069 0.000028 -0.000274 175.219829 -6.965159 111.376411 2.850073 0.000371 0.000390 171.097468 -1.532115 19.476394 2.774892 -0.000029 -0.000024 0.000001 -0.000001 0.000001 9.533165 0.000086 0.000126 181.479711 -7.464654 202.309807 3.699704 0.000103 -0.000160 181.534612 -3.240741 230.632703 2.950118 0.000325 0.000002 -1.678741 -179.534651 211.184682 2.952883 -0.000028 0.000065 -0.000001 -0.000002 0.000002 9.104290 -0.042740 -1.864952 194.603141 -11.972914 281.403138 3.150010 0.000021 0.000132 327.951287 5.667893 1.628552 2.949954 0.000010 0.000014 354.919633 15.348393 0.684735 2.644321 0.000015 0.000061 0.000001 0.000000 -0.000002 8.077776 -0.486503 -3.806106 205.243701 0.074910 -1.734987 3.599958 0.000008 0.014799 322.775124 29.217855 9.780616 2.099975 -0.000016 0.007660 0.280953 25.039788 -0.151447 2.125496 0.000001 0.007504 -0.000001 0.000003 -0.000000 -8.207786 -6.751667 -1.599560 -0.077001 -0.000003 0.000080 -0.000002 -44.370110 0.345938 0.153719 -0.000000 -0.000000 0.000000 -44.423679 -3.043532 -0.076700 0.000000 -0.000002 -0.000006 -8.728667 10.710559 -0.000009 -0.000000 -0.000000 -0.000001 -0.000679 9.278123 0.000000 -0.000000 -0.000000 8.207792 -6.751710 -1.599556 -0.074518 -0.000003 0.000081 -0.000002 -44.370014 0.346960 0.148822 0.000002 0.000000 -0.000001 -44.423664 -3.044403 -0.074314 0.000000 -0.000002 -0.000004 -8.728671 10.710558 0.000007 -0.000000 -0.000000 0.000000 -0.000680 9.278137 -0.000000 0.000000 -0.000001 
